<svg xmlns="http://www.w3.org/2000/svg" xmlns:xlink="http://www.w3.org/1999/xlink" width="2000" zoomAndPan="magnify" viewBox="0 0 1500 1499.999933" height="2000" preserveAspectRatio="xMidYMid meet" version="1.0"><defs><g/><clipPath id="efc8ebb1a0"><rect x="0" width="661" y="0" height="1085"/></clipPath><clipPath id="41f6a84580"><rect x="0" width="713" y="0" height="1000"/></clipPath></defs><rect x="-150" width="1800" fill="#ffffff" y="-149.999993" height="1799.99992" fill-opacity="1"/><rect x="-150" width="1800" fill="#ffffff" y="-149.999993" height="1799.99992" fill-opacity="1"/><g transform="matrix(1, 0, 0, 1, 506, 318)"><g clip-path="url(#efc8ebb1a0)"><g fill="#000000" fill-opacity="1"><g transform="translate(0.718681, 784.331641)"><g><path d="M 639.703125 -281.734375 C 639.703125 -189.691406 614.953125 -117.851562 565.453125 -66.21875 C 515.960938 -14.582031 446 11.234375 355.5625 11.234375 C 294.5625 11.234375 239.582031 -1.601562 190.625 -27.28125 C 141.664062 -52.96875 103.675781 -88.019531 76.65625 -132.4375 C 49.632812 -176.851562 36.125 -226.484375 36.125 -281.328125 C 36.125 -336.171875 49.5 -385.796875 76.25 -430.203125 C 103.007812 -474.617188 139.929688 -509.535156 187.015625 -534.953125 C 234.097656 -560.367188 286.535156 -573.078125 344.328125 -573.078125 C 380.710938 -573.078125 417.765625 -568.128906 455.484375 -558.234375 C 493.210938 -548.335938 524.65625 -535.09375 549.8125 -518.5 L 565.859375 -405.328125 L 558.640625 -405.328125 C 547.398438 -450.273438 521.445312 -485.457031 480.78125 -510.875 C 440.113281 -536.289062 394.898438 -549 345.140625 -549 C 273.972656 -549 214.707031 -523.71875 167.34375 -473.15625 C 119.988281 -422.59375 96.3125 -359.050781 96.3125 -282.53125 C 96.3125 -206.007812 120.789062 -141.929688 169.75 -90.296875 C 218.71875 -38.660156 282.796875 -12.84375 361.984375 -12.84375 C 441.179688 -12.84375 505.796875 -38.523438 555.828125 -89.890625 C 605.859375 -141.265625 630.875 -211.628906 630.875 -300.984375 L 638.90625 -300.984375 C 639.4375 -294.566406 639.703125 -288.148438 639.703125 -281.734375 Z M 639.703125 -281.734375 "/></g></g></g></g></g><g transform="matrix(1, 0, 0, 1, 262, 131)"><g clip-path="url(#41f6a84580)"><g fill="#000000" fill-opacity="1"><g transform="translate(2.403702, 719.955371)"><g><path d="M 704.46875 126.328125 C 683.65625 131.773438 665.195312 134.5 649.09375 134.5 C 633 134.5 618.757812 133.507812 606.375 131.53125 C 593.988281 129.550781 580.734375 125.710938 566.609375 120.015625 C 552.492188 114.316406 539.242188 107.75 526.859375 100.3125 C 514.472656 92.882812 502.085938 83.722656 489.703125 72.828125 C 466.921875 54.492188 446.238281 34.675781 427.65625 13.375 C 409.082031 -7.925781 373.289062 -47.925781 320.28125 -106.625 C 267.269531 -165.332031 232.09375 -204.347656 214.75 -223.671875 C 197.414062 -242.992188 184.039062 -253.148438 174.625 -254.140625 L 174.625 -261.578125 C 203.363281 -261.578125 222.5625 -262.195312 232.21875 -263.4375 C 241.882812 -264.675781 252.164062 -266.90625 263.0625 -270.125 C 273.957031 -273.34375 283.125 -277.675781 290.5625 -283.125 C 319.789062 -301.945312 334.40625 -333.15625 334.40625 -376.75 C 334.40625 -412.914062 326.351562 -441.894531 310.25 -463.6875 C 294.144531 -485.488281 271.476562 -496.640625 242.25 -497.140625 L 150.109375 -497.140625 L 150.109375 -54.25 C 150.109375 -41.863281 154.691406 -30.960938 163.859375 -21.546875 C 173.023438 -12.140625 184.296875 -7.4375 197.671875 -7.4375 L 206.578125 -7.4375 L 207.328125 0 L 44.59375 0 L 44.59375 -7.4375 L 54.25 -7.4375 C 66.632812 -7.4375 77.53125 -11.894531 86.9375 -20.8125 C 96.351562 -29.726562 101.3125 -40.625 101.8125 -53.5 L 101.8125 -465.921875 C 101.3125 -478.804688 96.476562 -489.832031 87.3125 -499 C 78.144531 -508.164062 67.125 -512.75 54.25 -512.75 L 44.59375 -512.75 L 44.59375 -520.171875 L 245.21875 -520.171875 C 288.820312 -520.171875 323.875 -507.910156 350.375 -483.390625 C 376.875 -458.867188 390.125 -426.421875 390.125 -386.046875 C 390.125 -345.671875 377.988281 -310.988281 353.71875 -282 C 329.445312 -253.019531 299.722656 -238.53125 264.546875 -238.53125 C 264.546875 -238.53125 264.296875 -238.53125 263.796875 -238.53125 C 280.640625 -220.695312 299.710938 -199.890625 321.015625 -176.109375 C 406.722656 -81.492188 461.710938 -22.050781 485.984375 2.21875 C 510.265625 26.5 531.691406 46.441406 550.265625 62.046875 C 568.847656 77.648438 585.320312 89.171875 599.6875 96.609375 C 628.914062 112.460938 657.898438 120.390625 686.640625 120.390625 C 692.578125 120.390625 698.519531 119.890625 704.46875 118.890625 Z M 704.46875 126.328125 "/></g></g></g></g></g><path fill="#ffffff" d="M 153.226562 703.355469 L 1346.761719 703.355469 C 1352.898438 703.355469 1358.78125 705.792969 1363.121094 710.128906 C 1367.457031 714.46875 1369.894531 720.355469 1369.894531 726.488281 L 1369.894531 772.761719 C 1369.894531 778.894531 1367.457031 784.78125 1363.121094 789.121094 C 1358.78125 793.457031 1352.898438 795.894531 1346.761719 795.894531 L 153.226562 795.894531 C 140.449219 795.894531 130.09375 785.539062 130.09375 772.761719 L 130.09375 726.488281 C 130.09375 713.710938 140.449219 703.355469 153.226562 703.355469 Z M 153.226562 703.355469 " fill-opacity="1" fill-rule="nonzero"/><g fill="#000000" fill-opacity="1"><g transform="translate(173.917592, 765.374914)"><g><path d="M 33.296875 0 L 22.03125 -17.71875 C 21.675781 -17.664062 21.144531 -17.640625 20.4375 -17.640625 L 13.328125 -17.640625 L 13.328125 0 L 6.90625 0 L 6.90625 -47.96875 L 19.703125 -47.96875 C 22.972656 -47.96875 25.890625 -47.390625 28.453125 -46.234375 C 31.023438 -45.085938 33.039062 -43.394531 34.5 -41.15625 C 35.957031 -38.925781 36.6875 -36.242188 36.6875 -33.109375 C 36.6875 -30.140625 36.035156 -27.414062 34.734375 -24.9375 C 33.429688 -22.46875 31.429688 -20.59375 28.734375 -19.3125 L 40.796875 0 Z M 20.296875 -23.890625 C 23.742188 -23.890625 26.226562 -24.796875 27.75 -26.609375 C 29.28125 -28.421875 30.046875 -30.5 30.046875 -32.84375 C 30.046875 -34.257812 29.722656 -35.648438 29.078125 -37.015625 C 28.441406 -38.390625 27.425781 -39.53125 26.03125 -40.4375 C 24.644531 -41.34375 22.890625 -41.796875 20.765625 -41.796875 L 13.328125 -41.796875 L 13.328125 -23.890625 Z M 20.296875 -23.890625 "/></g></g></g><g fill="#000000" fill-opacity="1"><g transform="translate(252.271379, 765.374914)"><g><path d="M 38.078125 -47.96875 L 38.078125 -41.796875 L 13.328125 -41.796875 L 13.328125 -27.203125 L 35.421875 -27.203125 L 35.421875 -21.03125 L 13.328125 -21.03125 L 13.328125 -6.234375 L 39.015625 -6.234375 L 39.015625 0 L 6.90625 0 L 6.90625 -47.96875 Z M 38.078125 -47.96875 "/></g></g></g><g fill="#000000" fill-opacity="1"><g transform="translate(330.160788, 765.374914)"><g><path d="M 32.046875 -12.609375 L 13.59375 -12.609375 L 8.484375 0 L 2.125 0 L 23.09375 -49.953125 L 23.484375 -49.953125 L 44.453125 0 L 37.015625 0 Z M 29.859375 -18.171875 L 23.015625 -35.6875 L 15.921875 -18.171875 Z M 29.859375 -18.171875 "/></g></g></g><g fill="#000000" fill-opacity="1"><g transform="translate(411.234504, 765.374914)"><g><path d="M 13.328125 -47.96875 L 13.328125 -6.234375 L 37.75 -6.234375 L 37.75 0 L 6.90625 0 L 6.90625 -47.96875 Z M 13.328125 -47.96875 "/></g></g></g><g fill="#000000" fill-opacity="1"><g transform="translate(487.067375, 765.374914)"><g/></g></g><g fill="#000000" fill-opacity="1"><g transform="translate(542.600284, 765.374914)"><g><path d="M 35.359375 -47.96875 L 35.359375 -41.796875 L 13.328125 -41.796875 L 13.328125 -26.53125 L 32.640625 -26.53125 L 32.640625 -20.375 L 13.328125 -20.375 L 13.328125 0 L 6.90625 0 L 6.90625 -47.96875 Z M 35.359375 -47.96875 "/></g></g></g><g fill="#000000" fill-opacity="1"><g transform="translate(616.243969, 765.374914)"><g><path d="M 3.921875 -23.953125 C 3.921875 -28.328125 5.023438 -32.394531 7.234375 -36.15625 C 9.441406 -39.914062 12.414062 -42.910156 16.15625 -45.140625 C 19.894531 -47.378906 23.972656 -48.5 28.390625 -48.5 C 32.773438 -48.5 36.84375 -47.378906 40.59375 -45.140625 C 44.351562 -42.910156 47.347656 -39.914062 49.578125 -36.15625 C 51.816406 -32.394531 52.9375 -28.328125 52.9375 -23.953125 C 52.9375 -19.523438 51.832031 -15.429688 49.625 -11.671875 C 47.414062 -7.910156 44.421875 -4.9375 40.640625 -2.75 C 36.859375 -0.5625 32.773438 0.53125 28.390625 0.53125 C 23.972656 0.53125 19.882812 -0.550781 16.125 -2.71875 C 12.363281 -4.882812 9.390625 -7.835938 7.203125 -11.578125 C 5.015625 -15.316406 3.921875 -19.441406 3.921875 -23.953125 Z M 10.546875 -23.890625 C 10.546875 -20.609375 11.34375 -17.570312 12.9375 -14.78125 C 14.53125 -12 16.707031 -9.789062 19.46875 -8.15625 C 22.238281 -6.519531 25.257812 -5.703125 28.53125 -5.703125 C 31.800781 -5.703125 34.796875 -6.507812 37.515625 -8.125 C 40.234375 -9.738281 42.378906 -11.945312 43.953125 -14.75 C 45.523438 -17.5625 46.3125 -20.628906 46.3125 -23.953125 C 46.3125 -27.265625 45.515625 -30.335938 43.921875 -33.171875 C 42.328125 -36.003906 40.15625 -38.238281 37.40625 -39.875 C 34.664062 -41.507812 31.660156 -42.328125 28.390625 -42.328125 C 25.117188 -42.328125 22.113281 -41.492188 19.375 -39.828125 C 16.632812 -38.171875 14.476562 -35.925781 12.90625 -33.09375 C 11.332031 -30.269531 10.546875 -27.203125 10.546875 -23.890625 Z M 10.546875 -23.890625 "/></g></g></g><g fill="#000000" fill-opacity="1"><g transform="translate(707.666691, 765.374914)"><g><path d="M 33.296875 0 L 22.03125 -17.71875 C 21.675781 -17.664062 21.144531 -17.640625 20.4375 -17.640625 L 13.328125 -17.640625 L 13.328125 0 L 6.90625 0 L 6.90625 -47.96875 L 19.703125 -47.96875 C 22.972656 -47.96875 25.890625 -47.390625 28.453125 -46.234375 C 31.023438 -45.085938 33.039062 -43.394531 34.5 -41.15625 C 35.957031 -38.925781 36.6875 -36.242188 36.6875 -33.109375 C 36.6875 -30.140625 36.035156 -27.414062 34.734375 -24.9375 C 33.429688 -22.46875 31.429688 -20.59375 28.734375 -19.3125 L 40.796875 0 Z M 20.296875 -23.890625 C 23.742188 -23.890625 26.226562 -24.796875 27.75 -26.609375 C 29.28125 -28.421875 30.046875 -30.5 30.046875 -32.84375 C 30.046875 -34.257812 29.722656 -35.648438 29.078125 -37.015625 C 28.441406 -38.390625 27.425781 -39.53125 26.03125 -40.4375 C 24.644531 -41.34375 22.890625 -41.796875 20.765625 -41.796875 L 13.328125 -41.796875 L 13.328125 -23.890625 Z M 20.296875 -23.890625 "/></g></g></g><g fill="#000000" fill-opacity="1"><g transform="translate(786.020444, 765.374914)"><g><path d="M 54.59375 -49.5 L 54.59375 0 L 48.234375 0 L 48.234375 -31.046875 L 30.578125 -6.03125 L 30.453125 -6.03125 L 13.140625 -30.1875 L 13.140625 0 L 6.90625 0 L 6.90625 -49.5 L 6.96875 -49.5 L 30.578125 -16.0625 L 54.53125 -49.5 Z M 54.59375 -49.5 "/></g></g></g><g fill="#000000" fill-opacity="1"><g transform="translate(882.086995, 765.374914)"><g><path d="M 38.078125 -47.96875 L 38.078125 -41.796875 L 13.328125 -41.796875 L 13.328125 -27.203125 L 35.421875 -27.203125 L 35.421875 -21.03125 L 13.328125 -21.03125 L 13.328125 -6.234375 L 39.015625 -6.234375 L 39.015625 0 L 6.90625 0 L 6.90625 -47.96875 Z M 38.078125 -47.96875 "/></g></g></g><g fill="#000000" fill-opacity="1"><g transform="translate(959.976392, 765.374914)"><g><path d="M 48.703125 -47.96875 L 48.703125 1.59375 L 48.5 1.59375 L 13.265625 -34.171875 L 13.40625 0 L 6.90625 0 L 6.90625 -49.421875 L 7.234375 -49.421875 L 42.390625 -13.265625 L 42.265625 -47.96875 Z M 48.703125 -47.96875 "/></g></g></g><g fill="#000000" fill-opacity="1"><g transform="translate(1050.138708, 765.374914)"><g><path d="M 35.234375 -47.96875 L 35.234375 -41.796875 L 22.359375 -41.796875 L 22.359375 0 L 15.921875 0 L 15.921875 -41.796875 L 3.390625 -41.796875 L 3.390625 -47.96875 Z M 35.234375 -47.96875 "/></g></g></g><g fill="#000000" fill-opacity="1"><g transform="translate(1123.317901, 765.374914)"><g><path d="M 38.078125 -47.96875 L 38.078125 -41.796875 L 13.328125 -41.796875 L 13.328125 -27.203125 L 35.421875 -27.203125 L 35.421875 -21.03125 L 13.328125 -21.03125 L 13.328125 -6.234375 L 39.015625 -6.234375 L 39.015625 0 L 6.90625 0 L 6.90625 -47.96875 Z M 38.078125 -47.96875 "/></g></g></g><g fill="#000000" fill-opacity="1"><g transform="translate(1201.20739, 765.374914)"><g><path d="M 33.296875 0 L 22.03125 -17.71875 C 21.675781 -17.664062 21.144531 -17.640625 20.4375 -17.640625 L 13.328125 -17.640625 L 13.328125 0 L 6.90625 0 L 6.90625 -47.96875 L 19.703125 -47.96875 C 22.972656 -47.96875 25.890625 -47.390625 28.453125 -46.234375 C 31.023438 -45.085938 33.039062 -43.394531 34.5 -41.15625 C 35.957031 -38.925781 36.6875 -36.242188 36.6875 -33.109375 C 36.6875 -30.140625 36.035156 -27.414062 34.734375 -24.9375 C 33.429688 -22.46875 31.429688 -20.59375 28.734375 -19.3125 L 40.796875 0 Z M 20.296875 -23.890625 C 23.742188 -23.890625 26.226562 -24.796875 27.75 -26.609375 C 29.28125 -28.421875 30.046875 -30.5 30.046875 -32.84375 C 30.046875 -34.257812 29.722656 -35.648438 29.078125 -37.015625 C 28.441406 -38.390625 27.425781 -39.53125 26.03125 -40.4375 C 24.644531 -41.34375 22.890625 -41.796875 20.765625 -41.796875 L 13.328125 -41.796875 L 13.328125 -23.890625 Z M 20.296875 -23.890625 "/></g></g></g><g fill="#000000" fill-opacity="1"><g transform="translate(1279.561143, 765.374914)"><g><path d="M 32.046875 -12.609375 L 13.59375 -12.609375 L 8.484375 0 L 2.125 0 L 23.09375 -49.953125 L 23.484375 -49.953125 L 44.453125 0 L 37.015625 0 Z M 29.859375 -18.171875 L 23.015625 -35.6875 L 15.921875 -18.171875 Z M 29.859375 -18.171875 "/></g></g></g></svg>